<svg width="1920" height="1080" viewBox="0 0 1920 1080" fill="none" xmlns="http://www.w3.org/2000/svg">
<rect width="1920" height="1080" fill="#1E1E1E"/>
<mask id="mask0_7_1017" style="mask-type:alpha" maskUnits="userSpaceOnUse" x="0" y="0" width="1920" height="1080">
<rect width="1920" height="1080" fill="#D9D9D9"/>
</mask>
<g mask="url(#mask0_7_1017)">
<rect width="1920" height="1080" fill="black"/>
<g filter="url(#filter0_f_7_1017)">
<path d="M1551.23 1407.8C1444.55 1460.3 1164.09 1429.01 1062.63 1379.77C961.173 1330.53 933.895 1227.85 942.482 1112.36C951.069 996.872 1027.65 742.228 1114.16 686.839C1200.66 631.451 1363.42 717.042 1461.51 780.031C1559.61 843.02 1687.77 960.143 1702.73 1064.77" fill="url(#paint0_linear_7_1017)" fill-opacity="0.5"/>
</g>
<g filter="url(#filter1_f_7_1017)">
<path d="M1157.32 1302.29C1039.56 1338.88 704.495 1398.65 580.948 1369.02C457.4 1339.39 414.707 1197.3 416.03 1124.5C417.352 1051.71 476.555 960.225 588.884 932.226C701.212 904.228 973.562 920.309 1090 956.514C1206.43 992.719 1276.28 1091.83 1287.5 1149.46" fill="url(#paint1_linear_7_1017)" fill-opacity="0.5"/>
</g>
<g filter="url(#filter2_f_7_1017)">
<path d="M-615.122 738.73C-631.466 564.845 -524.701 134.943 -452.545 -14.4789C-380.388 -163.901 -281.891 -189.693 -182.181 -157.804C-82.4697 -125.915 121.132 33.7961 145.72 176.855C170.309 319.914 48.7188 558.553 -34.6484 700.55C-118.016 842.547 -257.737 1022.47 -354.483 1028.84" fill="url(#paint2_linear_7_1017)" fill-opacity="0.5"/>
</g>
<g filter="url(#filter3_f_7_1017)">
<path d="M1492.69 -6.46737C1421.7 -139.066 1331.29 -496.063 1427.93 -604.063C1524.57 -712.063 1889.65 -689.071 2072.55 -654.468C2255.45 -619.865 2474.99 -519.77 2525.32 -396.446C2575.66 -273.123 2486.48 -12.5223 2374.57 85.4731C2262.66 183.469 2000.84 206.85 1853.86 191.526" fill="url(#paint3_linear_7_1017)" fill-opacity="0.5"/>
</g>
</g>
<defs>
<filter id="filter0_f_7_1017" x="441" y="169" width="1761.73" height="1766" filterUnits="userSpaceOnUse" color-interpolation-filters="sRGB">
<feFlood flood-opacity="0" result="BackgroundImageFix"/>
<feBlend mode="normal" in="SourceGraphic" in2="BackgroundImageFix" result="shape"/>
<feGaussianBlur stdDeviation="250" result="effect1_foregroundBlur_7_1017"/>
</filter>
<filter id="filter1_f_7_1017" x="-84" y="418" width="1871.5" height="1459" filterUnits="userSpaceOnUse" color-interpolation-filters="sRGB">
<feFlood flood-opacity="0" result="BackgroundImageFix"/>
<feBlend mode="normal" in="SourceGraphic" in2="BackgroundImageFix" result="shape"/>
<feGaussianBlur stdDeviation="250" result="effect1_foregroundBlur_7_1017"/>
</filter>
<filter id="filter2_f_7_1017" x="-1116.8" y="-669.887" width="1765.74" height="2198.72" filterUnits="userSpaceOnUse" color-interpolation-filters="sRGB">
<feFlood flood-opacity="0" result="BackgroundImageFix"/>
<feBlend mode="normal" in="SourceGraphic" in2="BackgroundImageFix" result="shape"/>
<feGaussianBlur stdDeviation="250" result="effect1_foregroundBlur_7_1017"/>
</filter>
<filter id="filter3_f_7_1017" x="885.827" y="-1183.25" width="2153.9" height="1879.08" filterUnits="userSpaceOnUse" color-interpolation-filters="sRGB">
<feFlood flood-opacity="0" result="BackgroundImageFix"/>
<feBlend mode="normal" in="SourceGraphic" in2="BackgroundImageFix" result="shape"/>
<feGaussianBlur stdDeviation="250" result="effect1_foregroundBlur_7_1017"/>
</filter>
<linearGradient id="paint0_linear_7_1017" x1="1323" y1="669" x2="1323" y2="1435" gradientUnits="userSpaceOnUse">
<stop stop-color="#8F00FF"/>
<stop offset="1" stop-color="white"/>
</linearGradient>
<linearGradient id="paint1_linear_7_1017" x1="853" y1="918" x2="853" y2="1377" gradientUnits="userSpaceOnUse">
<stop stop-color="#FFDC84"/>
<stop offset="1" stop-color="#FF8080"/>
</linearGradient>
<linearGradient id="paint2_linear_7_1017" x1="102.603" y1="503.6" x2="-574.815" y2="380.418" gradientUnits="userSpaceOnUse">
<stop stop-color="#8F00FF"/>
<stop offset="1" stop-color="white"/>
</linearGradient>
<linearGradient id="paint3_linear_7_1017" x1="2513.86" y1="-130.083" x2="1359.18" y2="-340.051" gradientUnits="userSpaceOnUse">
<stop stop-color="#FFDB80"/>
<stop offset="1" stop-color="#FF8080"/>
</linearGradient>
</defs>
</svg>
